HIERARCHY
ROOT Hips
{
  OFFSET 13.6774 106.653 -34.4427
  CHANNELS 6 Xposition Yposition Zposition Zrotation Xrotation Yrotation
  JOINT ToSpine
  {
    OFFSET -2.69724 7.43032 -0.144315
    CHANNELS 3 Zrotation Xrotation Yrotation
    JOINT Spine
    {
      OFFSET -0.0310711 10.7595 1.96963
      CHANNELS 3 Zrotation Xrotation Yrotation
      JOINT Spine1
      {
        OFFSET 19.9056 3.91189 0.764692
        CHANNELS 3 Zrotation Xrotation Yrotation
        JOINT Neck
        {
          OFFSET 25.9749 7.03908 -0.130764
          CHANNELS 3 Zrotation Xrotation Yrotation
          JOINT Head
          {
            OFFSET 9.52751 0.295786 -0.907742
            CHANNELS 3 Zrotation Xrotation Yrotation
            End Site
            {
              OFFSET 16.4037 0.713936 2.7358
            }
          }
        }
        JOINT LeftShoulder
        {
          OFFSET 17.7449 4.33886 11.7777
          CHANNELS 3 Zrotation Xrotation Yrotation
          JOINT LeftArm
          {
            OFFSET 0.911315 1.27913 9.80584
            CHANNELS 3 Zrotation Xrotation Yrotation
            JOINT LeftForeArm
            {
              OFFSET 28.6126 1.18197 -3.53199
              CHANNELS 3 Zrotation Xrotation Yrotation
              JOINT LeftHand
              {
                OFFSET 27.5088 0.0218783 0.327423
                CHANNELS 3 Zrotation Xrotation Yrotation
                End Site
                {
                  OFFSET 18.6038 -0.000155887 0.382096
                }
              }
            }
          }
        }
        JOINT RightShoulder
        {
          OFFSET 17.1009 2.89543 -12.2328
          CHANNELS 3 Zrotation Xrotation Yrotation
          JOINT RightArm
          {
            OFFSET 1.4228 0.178766 -10.211
            CHANNELS 3 Zrotation Xrotation Yrotation
            JOINT RightForeArm
            {
              OFFSET 28.733 1.87905 2.64907
              CHANNELS 3 Zrotation Xrotation Yrotation
              JOINT RightHand
              {
                OFFSET 27.4588 0.290562 -0.101845
                CHANNELS 3 Zrotation Xrotation Yrotation
                End Site
                {
                  OFFSET 17.8396 -0.255518 -0.000602873
                }
              }
            }
          }
        }
      }
    }
  }
  JOINT LeftUpLeg
  {
    OFFSET -5.61296 -2.22332 -10.2353
    CHANNELS 3 Zrotation Xrotation Yrotation
    JOINT LeftLeg
    {
      OFFSET 2.56703 -44.7417 -7.93097
      CHANNELS 3 Zrotation Xrotation Yrotation
      JOINT LeftFoot
      {
        OFFSET 3.16933 -46.5642 -3.96578
        CHANNELS 3 Zrotation Xrotation Yrotation
        JOINT LeftToeBase
        {
          OFFSET 0.346054 -6.02161 12.8035
          CHANNELS 3 Zrotation Xrotation Yrotation
          End Site
          {
            OFFSET 0.134235 -1.35082 5.13018
          }
        }
      }
    }
  }
  JOINT RightUpLeg
  {
    OFFSET -5.7928 -1.72406 10.6446
    CHANNELS 3 Zrotation Xrotation Yrotation
    JOINT RightLeg
    {
      OFFSET -2.57161 -44.7178 -7.85259
      CHANNELS 3 Zrotation Xrotation Yrotation
      JOINT RightFoot
      {
        OFFSET -3.10148 -46.5936 -4.03391
        CHANNELS 3 Zrotation Xrotation Yrotation
        JOINT RightToeBase
        {
          OFFSET -0.0828122 -6.13587 12.8035
          CHANNELS 3 Zrotation Xrotation Yrotation
          End Site
          {
            OFFSET -0.131328 -1.35082 5.13018
          }
        }
      }
    }
  }
}
MOTION
Frames: 8
Frame Time: 0.03333333333333333
0.0000 93.1000 0.0000 -46.8969 -28.3927 -171.0084 -70.9249 1.2752 88.1377 109.2687 67.7406 -25.5680 -3.8782 18.0219 5.4982 -161.9716 30.9947 -179.5814 -152.3219 71.5185 -168.4315 1.0321 -15.1303 -32.0677 -78.7831 45.8309 -69.5111 22.8290 6.1024 -75.3958 0.0852 -0.3360 -0.0059 -2.2251 4.5122 49.0211 -63.9738 -32.4752 65.7690 8.7182 -13.7374 37.9671 0.1514 0.6963 0.2283 -54.9431 5.0496 88.6563 -5.7743 58.6936 -4.8493 -7.6287 4.4863 0.9895 -0.0073 -5.6558 7.9017 -6.5040 -6.9438 77.2824 5.5992 70.9010 -11.2341 -5.3965 -19.5078 1.9526 0.8594 -9.6231 -14.0455 
0.0000 93.1000 0.0000 -48.8990 -22.8499 -173.7826 -71.0379 0.3566 88.1743 121.7723 66.9636 -36.9349 -5.4300 19.4920 4.6822 -165.8554 29.9424 -177.6537 -147.6638 70.0787 -171.9164 0.1845 -14.8460 -32.7156 -74.7702 48.2785 -71.0760 15.3777 7.3006 -64.4457 -0.0992 0.3761 0.0521 -2.3654 5.0326 49.5530 -67.2978 -28.2061 72.4757 11.1448 -14.6695 40.5723 0.1566 -0.1551 0.5554 -47.0242 4.5412 90.1068 -16.5171 74.4859 2.7402 -8.4243 4.7950 0.9158 1.9982 -7.9811 8.6076 -10.9096 -1.7268 79.8320 6.6138 70.2212 -8.8823 -8.9678 -19.3083 1.7722 2.7007 -18.6395 -21.5912 
0.0000 93.1000 0.0000 -49.4772 -18.2004 -177.0271 -70.7534 -0.0652 88.0590 129.4529 66.1548 -43.6643 -5.4515 21.6535 2.8297 -170.4652 29.2787 -177.0778 -148.6700 68.9401 -172.9522 -0.2693 -14.7519 -34.3367 -70.8754 51.1533 -69.4842 7.6297 7.1517 -52.6109 -0.2681 0.9632 -0.0208 -2.3002 5.1935 49.3673 -72.1537 -26.5333 80.8790 14.7005 -14.1554 49.0640 0.6196 -0.7397 0.8804 -35.1353 6.0976 92.6498 -122.9695 84.0016 110.8908 -6.3164 4.5682 0.0560 0.7683 -6.4900 10.7463 -18.2766 3.1998 82.4688 6.8761 67.0054 -3.8881 -10.3613 -22.9024 2.3490 4.2147 -19.5138 -30.0007 
0.0000 93.1000 0.0000 -48.0111 -14.9222 -177.0382 -71.0001 -1.8024 87.9479 132.8299 68.1445 -46.5081 -7.3384 23.6827 1.9381 -171.6604 28.2583 -176.2076 -148.6716 67.5787 -174.0972 -1.1428 -14.6905 -32.8123 -59.8983 56.9926 -72.2712 4.4725 3.7918 -48.5058 0.3645 -0.0876 -1.4469 -4.1672 5.5313 45.1717 -78.5302 -30.0226 86.1019 26.4194 -11.8612 64.9173 -1.0372 0.2826 -1.1031 -17.8641 6.7544 92.6710 -161.0026 74.2520 151.9536 -4.9604 5.4230 1.7827 1.5985 -5.8225 7.7261 -25.4214 4.0393 82.3164 4.7189 62.1960 -1.7559 -4.4253 -33.2517 0.1231 2.3270 -6.4057 -22.4372 
0.0000 93.1000 0.0000 -47.0342 -10.6515 176.6553 -71.2469 0.2350 88.1864 130.9368 69.9710 -47.9845 -6.1541 26.1472 1.8390 -169.7395 28.8322 180.8268 -144.1561 67.4264 -177.2009 0.3365 -14.3472 -30.8616 -49.6741 61.6481 -71.6571 5.9446 3.9062 -52.2519 -0.4171 0.0725 0.3731 -2.2821 5.6454 40.3775 -78.0913 -36.2975 92.5926 32.0910 -5.7716 80.1519 -1.0579 0.4537 0.2096 -3.8586 7.2917 96.5306 -163.4937 73.2929 157.2337 -2.7489 4.1368 0.3784 0.5899 -3.9489 6.7189 -32.0909 3.3376 87.0589 3.6979 57.1941 0.9354 -4.9778 -32.7592 1.7399 1.4690 -10.6371 -17.6708 
0.0000 93.1000 0.0000 -48.0794 -8.4142 173.9249 -71.2585 0.0859 88.0508 131.5638 72.5496 -50.7184 -7.3240 28.0153 1.7357 -168.9295 29.1577 179.6476 -145.9565 68.0857 -176.9777 0.4465 -13.6555 -28.6267 -42.7659 66.6051 -71.8932 5.8331 4.0231 -56.5345 0.2476 -0.3379 0.0749 -2.4194 6.3318 37.1983 -77.4385 -39.9353 97.8463 36.2664 0.8338 90.7691 -0.8809 0.6755 -0.9903 3.2294 6.8840 96.8912 -151.7565 79.6911 145.5273 -3.3483 3.3298 1.0666 1.2298 -5.6393 8.8636 -44.3445 0.9013 89.5514 3.0344 47.4127 4.6860 -5.5700 -20.8796 0.8240 2.2258 -24.0095 -10.2973 
0.0000 93.1000 0.0000 -49.8828 -6.1684 172.8007 -71.3167 0.1482 88.1938 134.6152 73.8685 -53.9558 -8.0864 29.0533 1.9282 -166.2321 29.7938 178.5873 -146.8569 68.9654 -177.8915 0.1265 -13.8222 -26.2656 -32.5665 70.7279 -75.8587 5.7302 2.9261 -60.9329 0.2067 0.5089 0.0119 -1.2998 6.9703 35.8710 -75.9212 -40.9957 98.8384 37.6130 6.0626 98.1698 -0.0751 -0.5609 -0.3136 5.9499 4.9349 96.0638 -39.3265 83.0213 29.0561 -5.0790 6.2999 0.5407 1.3099 -7.4703 9.0311 -55.0236 -0.2978 90.1965 1.7264 38.0208 3.4245 -2.8687 -1.0006 0.1405 4.2335 -33.8177 3.5177 
0.0000 93.1000 0.0000 -50.0310 -6.1506 173.6763 -71.2607 0.1487 88.0710 126.8457 76.9372 -44.9256 -5.6053 30.2079 0.6247 -165.9817 28.9223 178.5756 -148.6216 68.7599 -176.7976 0.0653 -14.7191 -25.8467 -30.2000 73.2567 -77.9843 4.8660 2.2029 -63.7909 0.7127 0.6201 -0.3580 -1.0596 7.0354 34.1113 -74.7751 -41.9942 97.8719 36.6780 8.7268 101.0308 0.1692 -0.6076 0.3209 4.5111 3.1255 95.7542 -8.4414 64.9623 -4.4697 -8.3859 8.2133 1.1590 1.2552 -7.0359 9.7272 -62.3579 -3.3869 84.7136 -1.2301 31.8953 16.1421 4.7287 16.1721 -1.4805 2.3549 -19.6173 3.4940 
